# xmcd CD database file
#
# Track frame offsets:
#	150
#	13790
#	31159
#	51336
#	67586
#	84205
#	99440
#	116217
#	134606
#	160281
#	174743
#	189130
#
# Disc length: 2680 seconds
#
# Revision: 0
# Processed by: cddbd v1.5.1PL2 Copyright (c) Steve Scherf et al.
# Submitted via: CDex 1.51
#
DISCID=940a760c
DTITLE=Chris Isaak - San Francisco days
DYEAR=1993
DGENRE=Blues
TTITLE0=San Francisco days
TTITLE1=Beautiful homes
TTITLE2=Round 'N' round
TTITLE3=Two hearts
TTITLE4=Can't do a thing (to stop me)
TTITLE5=Except the new girl
TTITLE6=Waiting
TTITLE7=Move along
TTITLE8=I want your love
TTITLE9=5:15
TTITLE10=Lonely with a broken heart
TTITLE11=Solitary man
EXTD=YEAR: 1993
EXTT0=
EXTT1=
EXTT2=
EXTT3=
EXTT4=
EXTT5=
EXTT6=
EXTT7=
EXTT8=
EXTT9=
EXTT10=
EXTT11=
PLAYORDER=
